<svg width="970.4px" height="121.4px" xmlns="http://www.w3.org/2000/svg" viewBox="-235.21875 14.300000000000004 970.4375 121.39999999999999" style="background: rgb(253, 253, 253)" preserveAspectRatio="xMidYMid"><defs><linearGradient id="editing-gradient-gradient" x1="0.00030458649045211894" x2="0.9996954135095479" y1="0.48255025164874954" y2="0.5174497483512505" gradientUnits="objectBoundingBox"><stop offset="0" stop-color="#a00d1e"></stop><stop offset="1" stop-color="#a8d692"></stop></linearGradient></defs><g><g transform="matrix(1.3,0,0,1.5,-243.4,178.7)"><path d="M 82.5 -84.2 L 82.5 -84.2 L 82.5 -84.2 Q 83.4 -86.1 83.4 -87.9 L 83.4 -87.9 L 83.4 -87.9 Q 83.4 -89.7 83.2 -90.7 L 83.2 -90.7 L 83.2 -90.7 Q 83 -91.7 82.6 -92.5 L 82.6 -92.5 L 82.6 -92.5 Q 81.6 -94.1 79.7 -94.1 L 79.7 -94.1 L 79.7 -94.1 Q 77.3 -94.1 75.4 -92.4 L 75.4 -92.4 L 75.4 -92.4 Q 73.4 -90.6 73.4 -87.8 L 73.4 -87.8 L 73.4 -87.8 Q 73.4 -86 74.6 -84.6 L 74.6 -84.6 L 74.6 -84.6 Q 75.9 -83.3 77.8 -82 L 77.8 -82 L 77.8 -82 Q 79.7 -80.7 81.9 -79.4 L 81.9 -79.4 L 81.9 -79.4 Q 84.1 -78.1 86 -76.6 L 86 -76.6 L 86 -76.6 Q 90.4 -73.1 90.4 -68.3 L 90.4 -68.3 L 90.4 -68.3 Q 90.4 -65.1 88.7 -62.4 L 88.7 -62.4 L 88.7 -62.4 Q 87 -59.7 84.2 -57.7 L 84.2 -57.7 L 84.2 -57.7 Q 78 -53.4 69.9 -53.4 L 69.9 -53.4 L 69.9 -53.4 Q 63.3 -53.4 59.9 -55.5 L 59.9 -55.5 L 59.9 -55.5 Q 56.5 -57.7 56.5 -60.9 L 56.5 -60.9 L 56.5 -60.9 Q 56.5 -66.7 61.1 -68.2 L 61.1 -68.2 L 61.1 -68.2 Q 62.4 -68.7 64.3 -68.7 L 64.3 -68.7 L 64.3 -68.7 Q 66.3 -68.7 68.5 -67.8 L 68.5 -67.8 L 68.5 -67.8 Q 67.5 -65.2 67.5 -62.8 L 67.5 -62.8 L 67.5 -62.8 Q 67.5 -57.7 71.1 -57.7 L 71.1 -57.7 L 71.1 -57.7 Q 73.5 -57.7 75.5 -59.4 L 75.5 -59.4 L 75.5 -59.4 Q 77.4 -61.2 77.4 -63.1 L 77.4 -63.1 L 77.4 -63.1 Q 77.4 -65.1 76.2 -66.5 L 76.2 -66.5 L 76.2 -66.5 Q 74.9 -67.9 73.1 -69 L 73.1 -69 L 73.1 -69 Q 71.2 -70.1 69.1 -71.2 L 69.1 -71.2 L 69.1 -71.2 Q 66.9 -72.3 65.1 -73.8 L 65.1 -73.8 L 65.1 -73.8 Q 60.7 -77.4 60.7 -83 L 60.7 -83 L 60.7 -83 Q 60.7 -86.6 62.5 -89.5 L 62.5 -89.5 L 62.5 -89.5 Q 64.3 -92.3 67.2 -94.3 L 67.2 -94.3 L 67.2 -94.3 Q 72.9 -98.2 80 -98.2 L 80 -98.2 L 80 -98.2 Q 87.1 -98.2 90.5 -96.1 L 90.5 -96.1 L 90.5 -96.1 Q 93.9 -93.9 93.9 -90.4 L 93.9 -90.4 L 93.9 -90.4 Q 93.9 -87.2 91.5 -85.2 L 91.5 -85.2 L 91.5 -85.2 Q 89.4 -83.6 86.8 -83.6 L 86.8 -83.6 L 86.8 -83.6 Q 84.3 -83.6 82.5 -84.2 Z M 121.2 -65.5 L 121.2 -65.5 L 121.2 -65.5 Q 122.8 -64.4 122.8 -62 L 122.8 -62 L 122.8 -62 Q 122.8 -59.6 121.6 -58 L 121.6 -58 L 121.6 -58 Q 120.4 -56.5 118.4 -55.5 L 118.4 -55.5 L 118.4 -55.5 Q 114.3 -53.4 109.9 -53.4 L 109.9 -53.4 L 109.9 -53.4 Q 105.4 -53.4 102.8 -54.3 L 102.8 -54.3 L 102.8 -54.3 Q 100.3 -55.3 98.5 -57.1 L 98.5 -57.1 L 98.5 -57.1 Q 95.1 -60.5 95.1 -66.7 L 95.1 -66.7 L 95.1 -66.7 Q 95.1 -76.3 100.4 -82.2 L 100.4 -82.2 L 100.4 -82.2 Q 106 -88.6 115.8 -88.6 L 115.8 -88.6 L 115.8 -88.6 Q 121.9 -88.6 124.9 -86 L 124.9 -86 L 124.9 -86 Q 127.1 -84.1 127.1 -80.9 L 127.1 -80.9 L 127.1 -80.9 Q 127.1 -69.7 107.7 -69.7 L 107.7 -69.7 L 107.7 -69.7 Q 107.4 -68 107.4 -66.6 L 107.4 -66.6 L 107.4 -66.6 Q 107.4 -63.7 108.7 -62.5 L 108.7 -62.5 L 108.7 -62.5 Q 110 -61.4 112.5 -61.4 L 112.5 -61.4 L 112.5 -61.4 Q 114.9 -61.4 117.5 -62.5 L 117.5 -62.5 L 117.5 -62.5 Q 120.1 -63.7 121.2 -65.5 Z M 108.1 -72.4 L 108.1 -72.4 L 108.1 -72.4 Q 112.7 -72.4 115.3 -75.3 L 115.3 -75.3 L 115.3 -75.3 Q 117.9 -77.9 117.9 -82.2 L 117.9 -82.2 L 117.9 -82.2 Q 117.9 -83.7 117.4 -84.5 L 117.4 -84.5 L 117.4 -84.5 Q 116.8 -85.3 115.7 -85.3 L 115.7 -85.3 L 115.7 -85.3 Q 114.7 -85.3 113.7 -84.9 L 113.7 -84.9 L 113.7 -84.9 Q 112.8 -84.5 111.8 -83.1 L 111.8 -83.1 L 111.8 -83.1 Q 109.5 -79.9 108.1 -72.4 Z M 132.1 -56.6 L 132.1 -56.6 L 132.1 -56.6 Q 130.6 -58.2 129.9 -60.9 L 129.9 -60.9 L 129.9 -60.9 Q 129.2 -63.5 129.2 -67.8 L 129.2 -67.8 L 129.2 -67.8 Q 129.2 -72.1 130.7 -76 L 130.7 -76 L 130.7 -76 Q 132.2 -79.9 134.9 -82.7 L 134.9 -82.7 L 134.9 -82.7 Q 140.4 -88.6 149.5 -88.6 L 149.5 -88.6 L 149.5 -88.6 Q 152.7 -88.6 155.1 -87.5 L 155.1 -87.5 L 166 -88.6 L 161.3 -63.6 L 161.3 -63.6 Q 161.1 -62.8 161.1 -61.4 L 161.1 -61.4 L 161.1 -61.4 Q 161.1 -60 162 -59.1 L 162 -59.1 L 162 -59.1 Q 162.8 -58.2 164.1 -58.1 L 164.1 -58.1 L 164.1 -58.1 Q 163.5 -55.9 161.2 -54.6 L 161.2 -54.6 L 161.2 -54.6 Q 158.8 -53.4 156.2 -53.4 L 156.2 -53.4 L 156.2 -53.4 Q 153.6 -53.4 151.8 -54.4 L 151.8 -54.4 L 151.8 -54.4 Q 150 -55.3 149.5 -57 L 149.5 -57 L 149.5 -57 Q 148.5 -55.4 146.3 -54.4 L 146.3 -54.4 L 146.3 -54.4 Q 144.2 -53.4 141.2 -53.4 L 141.2 -53.4 L 141.2 -53.4 Q 138.3 -53.4 136 -54.1 L 136 -54.1 L 136 -54.1 Q 133.6 -54.9 132.1 -56.6 Z M 145.6 -82.5 L 145.6 -82.5 L 145.6 -82.5 Q 144.9 -81.4 144.2 -79.4 L 144.2 -79.4 L 144.2 -79.4 Q 143.6 -77.5 142.5 -72.3 L 142.5 -72.3 L 142.5 -72.3 Q 141.5 -67.1 141.5 -63.3 L 141.5 -63.3 L 141.5 -63.3 Q 141.5 -59.6 142 -58.5 L 142 -58.5 L 142 -58.5 Q 142.6 -57.5 143.6 -57.5 L 143.6 -57.5 L 143.6 -57.5 Q 145.7 -57.5 147.2 -59.4 L 147.2 -59.4 L 147.2 -59.4 Q 148.7 -61.4 149.3 -64.8 L 149.3 -64.8 L 152.7 -83.6 L 152.7 -83.6 Q 151.3 -84.7 149.8 -84.7 L 149.8 -84.7 L 149.8 -84.7 Q 148.2 -84.7 147.3 -84.2 L 147.3 -84.2 L 147.3 -84.2 Q 146.3 -83.7 145.6 -82.5 Z M 189.5 -72.6 L 189.5 -72.6 L 189.5 -72.6 Q 191.8 -76.7 191.8 -80.9 L 191.8 -80.9 L 191.8 -80.9 Q 191.8 -83.6 189.9 -83.6 L 189.9 -83.6 L 189.9 -83.6 Q 188.3 -83.6 186.7 -81 L 186.7 -81 L 186.7 -81 Q 185.1 -78.4 184.5 -75 L 184.5 -75 L 181.2 -54.6 L 168 -53.4 L 174.5 -87.3 L 185.1 -88.6 L 183.9 -82.1 L 183.9 -82.1 Q 187 -88.6 194.1 -88.6 L 194.1 -88.6 L 194.1 -88.6 Q 197.8 -88.6 199.8 -86.6 L 199.8 -86.6 L 199.8 -86.6 Q 201.8 -84.7 201.8 -80.8 L 201.8 -80.8 L 201.8 -80.8 Q 201.8 -76.9 199.2 -74.4 L 199.2 -74.4 L 199.2 -74.4 Q 196.6 -71.9 192.2 -71.9 L 192.2 -71.9 L 192.2 -71.9 Q 190.3 -71.9 189.5 -72.6 Z M 234.3 -81.3 L 234.3 -81.3 L 234.3 -81.3 Q 234.3 -78.6 232 -76.9 L 232 -76.9 L 232 -76.9 Q 229.8 -75.3 226.1 -75.3 L 226.1 -75.3 L 226.1 -75.3 Q 224.6 -75.3 223.7 -75.7 L 223.7 -75.7 L 223.7 -75.7 Q 224.4 -77.4 224.6 -79.4 L 224.6 -79.4 L 224.6 -79.4 Q 224.9 -81.5 224.9 -82.1 L 224.9 -82.1 L 224.9 -82.1 Q 224.9 -84.8 223 -84.8 L 223 -84.8 L 223 -84.8 Q 221.7 -84.8 220.3 -83.2 L 220.3 -83.2 L 220.3 -83.2 Q 218.8 -81.6 217.6 -79.1 L 217.6 -79.1 L 217.6 -79.1 Q 214.9 -73.3 214.9 -67.5 L 214.9 -67.5 L 214.9 -67.5 Q 214.9 -64.3 216.2 -62.9 L 216.2 -62.9 L 216.2 -62.9 Q 217.4 -61.4 220.1 -61.4 L 220.1 -61.4 L 220.1 -61.4 Q 223.8 -61.4 226.7 -64.5 L 226.7 -64.5 L 226.7 -64.5 Q 227.6 -65.5 228 -66.5 L 228 -66.5 L 228 -66.5 Q 230.4 -65.3 230.4 -61.7 L 230.4 -61.7 L 230.4 -61.7 Q 230.4 -58.2 226.5 -55.8 L 226.5 -55.8 L 226.5 -55.8 Q 222.4 -53.4 215.8 -53.4 L 215.8 -53.4 L 215.8 -53.4 Q 202.8 -53.4 202.8 -67.1 L 202.8 -67.1 L 202.8 -67.1 Q 202.8 -77.2 208.5 -82.9 L 208.5 -82.9 L 208.5 -82.9 Q 214 -88.6 224.2 -88.6 L 224.2 -88.6 L 224.2 -88.6 Q 234.3 -88.6 234.3 -81.3 Z M 268.2 -61.7 L 268.2 -61.7 L 268.2 -61.7 Q 268.2 -58.9 271.1 -58.1 L 271.1 -58.1 L 271.1 -58.1 Q 270.4 -55.7 267.6 -54.5 L 267.6 -54.5 L 267.6 -54.5 Q 265.3 -53.4 262.8 -53.4 L 262.8 -53.4 L 262.8 -53.4 Q 260.3 -53.4 258.9 -54 L 258.9 -54 L 258.9 -54 Q 257.6 -54.7 256.9 -55.8 L 256.9 -55.8 L 256.9 -55.8 Q 255.8 -57.5 255.8 -60.6 L 255.8 -60.6 L 255.8 -60.6 Q 255.8 -62.5 256.8 -67.6 L 256.8 -67.6 L 257.7 -72.4 L 257.7 -72.4 Q 258.8 -78 258.8 -80.1 L 258.8 -80.1 L 258.8 -80.1 Q 258.8 -83.6 256.8 -83.6 L 256.8 -83.6 L 256.8 -83.6 Q 254.3 -83.6 252.7 -80 L 252.7 -80 L 252.7 -80 Q 252.1 -78.6 251.6 -76.5 L 251.6 -76.5 L 247.3 -54.6 L 234.4 -53.4 L 243.4 -99.4 L 256.3 -100.7 L 255.8 -98.2 L 255.8 -98.2 Q 254 -88.3 252.4 -85 L 252.4 -85 L 252.4 -85 Q 256 -88.6 262.6 -88.6 L 262.6 -88.6 L 262.6 -88.6 Q 269.6 -88.6 270.9 -84 L 270.9 -84 L 270.9 -84 Q 271.3 -82.5 271.3 -81.2 L 271.3 -81.2 L 271.3 -81.2 Q 271.3 -79.9 271.2 -78.9 L 271.2 -78.9 L 271.2 -78.9 Q 271.1 -77.9 270.8 -76.1 L 270.8 -76.1 L 270 -71.5 L 268.5 -64.3 L 268.5 -64.3 Q 268.2 -62.8 268.2 -61.7 Z M 315.4 -75.3 L 328.3 -76.4 L 328.3 -76.4 Q 323.7 -66.3 323.7 -54.6 L 323.7 -54.6 L 323.7 -54.6 Q 322 -53.4 319.4 -53.4 L 319.4 -53.4 L 319.4 -53.4 Q 316.9 -53.4 315.3 -54.5 L 315.3 -54.5 L 315.3 -54.5 Q 313.7 -55.7 313.4 -56.9 L 313.4 -56.9 L 313.4 -56.9 Q 311.8 -55.3 309.2 -54.3 L 309.2 -54.3 L 309.2 -54.3 Q 306.6 -53.4 303.8 -53.4 L 303.8 -53.4 L 303.8 -53.4 Q 301.1 -53.4 298.7 -54.3 L 298.7 -54.3 L 298.7 -54.3 Q 296.3 -55.2 294.4 -57.1 L 294.4 -57.1 L 294.4 -57.1 Q 290.3 -61.5 290.3 -69.7 L 290.3 -69.7 L 290.3 -69.7 Q 290.3 -82.5 297.2 -90.2 L 297.2 -90.2 L 297.2 -90.2 Q 304.2 -98.2 316.7 -98.2 L 316.7 -98.2 L 316.7 -98.2 Q 325.3 -98.2 328.4 -93.7 L 328.4 -93.7 L 328.4 -93.7 Q 329.4 -92.3 329.4 -90.6 L 329.4 -90.6 L 329.4 -90.6 Q 329.4 -88.9 328.6 -87.4 L 328.6 -87.4 L 328.6 -87.4 Q 327.9 -86 326.8 -84.9 L 326.8 -84.9 L 326.8 -84.9 Q 324 -82.3 320.6 -82.3 L 320.6 -82.3 L 320.6 -82.3 Q 319.3 -82.3 318 -82.7 L 318 -82.7 L 318 -82.7 Q 318.2 -84.7 318.2 -86.9 L 318.2 -86.9 L 318.2 -86.9 Q 318.2 -89.1 318.1 -90.2 L 318.1 -90.2 L 318.1 -90.2 Q 317.9 -91.2 317.5 -92 L 317.5 -92 L 317.5 -92 Q 316.7 -93.7 314.9 -93.7 L 314.9 -93.7 L 314.9 -93.7 Q 313.1 -93.7 311 -91.8 L 311 -91.8 L 311 -91.8 Q 309 -89.8 307.4 -86.6 L 307.4 -86.6 L 307.4 -86.6 Q 303.9 -79.5 303.9 -70.8 L 303.9 -70.8 L 303.9 -70.8 Q 303.9 -66.9 305.4 -64.1 L 305.4 -64.1 L 305.4 -64.1 Q 307.1 -61 310 -61 L 310 -61 L 310 -61 Q 311.1 -61 312 -61.5 L 312 -61.5 L 312 -61.5 Q 312.9 -62 313.3 -62.4 L 313.3 -62.4 L 315.4 -75.3 Z M 334.2 -56.6 L 334.2 -56.6 L 334.2 -56.6 Q 332.7 -58.2 332 -60.9 L 332 -60.9 L 332 -60.9 Q 331.4 -63.5 331.4 -67.8 L 331.4 -67.8 L 331.4 -67.8 Q 331.4 -72.1 332.8 -76 L 332.8 -76 L 332.8 -76 Q 334.3 -79.9 337 -82.7 L 337 -82.7 L 337 -82.7 Q 342.5 -88.6 351.6 -88.6 L 351.6 -88.6 L 351.6 -88.6 Q 354.8 -88.6 357.2 -87.5 L 357.2 -87.5 L 368.2 -88.6 L 363.4 -63.6 L 363.4 -63.6 Q 363.2 -62.8 363.2 -61.4 L 363.2 -61.4 L 363.2 -61.4 Q 363.2 -60 364.1 -59.1 L 364.1 -59.1 L 364.1 -59.1 Q 365 -58.2 366.2 -58.1 L 366.2 -58.1 L 366.2 -58.1 Q 365.6 -55.9 363.3 -54.6 L 363.3 -54.6 L 363.3 -54.6 Q 360.9 -53.4 358.3 -53.4 L 358.3 -53.4 L 358.3 -53.4 Q 355.7 -53.4 353.9 -54.4 L 353.9 -54.4 L 353.9 -54.4 Q 352.2 -55.3 351.6 -57 L 351.6 -57 L 351.6 -57 Q 350.6 -55.4 348.4 -54.4 L 348.4 -54.4 L 348.4 -54.4 Q 346.3 -53.4 343.4 -53.4 L 343.4 -53.4 L 343.4 -53.4 Q 340.4 -53.4 338.1 -54.1 L 338.1 -54.1 L 338.1 -54.1 Q 335.7 -54.9 334.2 -56.6 Z M 347.7 -82.5 L 347.7 -82.5 L 347.7 -82.5 Q 347 -81.4 346.3 -79.4 L 346.3 -79.4 L 346.3 -79.4 Q 345.7 -77.5 344.6 -72.3 L 344.6 -72.3 L 344.6 -72.3 Q 343.6 -67.1 343.6 -63.3 L 343.6 -63.3 L 343.6 -63.3 Q 343.6 -59.6 344.2 -58.5 L 344.2 -58.5 L 344.2 -58.5 Q 344.7 -57.5 345.8 -57.5 L 345.8 -57.5 L 345.8 -57.5 Q 347.8 -57.5 349.3 -59.4 L 349.3 -59.4 L 349.3 -59.4 Q 350.8 -61.4 351.4 -64.8 L 351.4 -64.8 L 354.8 -83.6 L 354.8 -83.6 Q 353.4 -84.7 351.9 -84.7 L 351.9 -84.7 L 351.9 -84.7 Q 350.3 -84.7 349.4 -84.2 L 349.4 -84.2 L 349.4 -84.2 Q 348.4 -83.7 347.7 -82.5 Z M 386.9 -58.2 L 386.9 -58.2 L 386.9 -58.2 Q 384.9 -53.4 378.6 -53.4 L 378.6 -53.4 L 378.6 -53.4 Q 375.4 -53.4 373.3 -55.6 L 373.3 -55.6 L 373.3 -55.6 Q 371.7 -57.5 371.7 -59.6 L 371.7 -59.6 L 371.7 -59.6 Q 371.7 -64.4 373.9 -74.9 L 373.9 -74.9 L 378.6 -99.4 L 391.6 -100.7 L 385.4 -68.3 L 385.4 -68.3 Q 384.3 -63.6 384.3 -61.9 L 384.3 -61.9 L 384.3 -61.9 Q 384.3 -58.3 386.9 -58.2 Z M 407.6 -58.2 L 407.6 -58.2 L 407.6 -58.2 Q 405.7 -53.4 399.3 -53.4 L 399.3 -53.4 L 399.3 -53.4 Q 396.1 -53.4 394.1 -55.6 L 394.1 -55.6 L 394.1 -55.6 Q 392.4 -57.5 392.4 -59.6 L 392.4 -59.6 L 392.4 -59.6 Q 392.4 -64.4 394.7 -74.9 L 394.7 -74.9 L 399.3 -99.4 L 412.3 -100.7 L 406.1 -68.3 L 406.1 -68.3 Q 405 -63.6 405 -61.9 L 405 -61.9 L 405 -61.9 Q 405 -58.3 407.6 -58.2 Z M 439 -65.5 L 439 -65.5 L 439 -65.5 Q 440.6 -64.4 440.6 -62 L 440.6 -62 L 440.6 -62 Q 440.6 -59.6 439.4 -58 L 439.4 -58 L 439.4 -58 Q 438.2 -56.5 436.2 -55.5 L 436.2 -55.5 L 436.2 -55.5 Q 432.1 -53.4 427.7 -53.4 L 427.7 -53.4 L 427.7 -53.4 Q 423.3 -53.4 420.7 -54.3 L 420.7 -54.3 L 420.7 -54.3 Q 418.1 -55.3 416.4 -57.1 L 416.4 -57.1 L 416.4 -57.1 Q 413 -60.5 413 -66.7 L 413 -66.7 L 413 -66.7 Q 413 -76.3 418.2 -82.2 L 418.2 -82.2 L 418.2 -82.2 Q 423.8 -88.6 433.6 -88.6 L 433.6 -88.6 L 433.6 -88.6 Q 439.7 -88.6 442.7 -86 L 442.7 -86 L 442.7 -86 Q 445 -84.1 445 -80.9 L 445 -80.9 L 445 -80.9 Q 445 -69.7 425.5 -69.7 L 425.5 -69.7 L 425.5 -69.7 Q 425.2 -68 425.2 -66.6 L 425.2 -66.6 L 425.2 -66.6 Q 425.2 -63.7 426.6 -62.5 L 426.6 -62.5 L 426.6 -62.5 Q 427.9 -61.4 430.3 -61.4 L 430.3 -61.4 L 430.3 -61.4 Q 432.7 -61.4 435.3 -62.5 L 435.3 -62.5 L 435.3 -62.5 Q 437.9 -63.7 439 -65.5 Z M 426 -72.4 L 426 -72.4 L 426 -72.4 Q 430.5 -72.4 433.1 -75.3 L 433.1 -75.3 L 433.1 -75.3 Q 435.7 -77.9 435.7 -82.2 L 435.7 -82.2 L 435.7 -82.2 Q 435.7 -83.7 435.2 -84.5 L 435.2 -84.5 L 435.2 -84.5 Q 434.7 -85.3 433.6 -85.3 L 433.6 -85.3 L 433.6 -85.3 Q 432.5 -85.3 431.6 -84.9 L 431.6 -84.9 L 431.6 -84.9 Q 430.6 -84.5 429.7 -83.1 L 429.7 -83.1 L 429.7 -83.1 Q 427.3 -79.9 426 -72.4 Z M 467.2 -72.6 L 467.2 -72.6 L 467.2 -72.6 Q 469.5 -76.7 469.5 -80.9 L 469.5 -80.9 L 469.5 -80.9 Q 469.5 -83.6 467.5 -83.6 L 467.5 -83.6 L 467.5 -83.6 Q 466 -83.6 464.4 -81 L 464.4 -81 L 464.4 -81 Q 462.7 -78.4 462.2 -75 L 462.2 -75 L 458.8 -54.6 L 445.6 -53.4 L 452.1 -87.3 L 462.7 -88.6 L 461.5 -82.1 L 461.5 -82.1 Q 464.7 -88.6 471.7 -88.6 L 471.7 -88.6 L 471.7 -88.6 Q 475.4 -88.6 477.4 -86.6 L 477.4 -86.6 L 477.4 -86.6 Q 479.5 -84.7 479.5 -80.8 L 479.5 -80.8 L 479.5 -80.8 Q 479.5 -76.9 476.9 -74.4 L 476.9 -74.4 L 476.9 -74.4 Q 474.3 -71.9 469.9 -71.9 L 469.9 -71.9 L 469.9 -71.9 Q 467.9 -71.9 467.2 -72.6 Z M 500.8 -61.9 L 500.8 -61.9 L 500.8 -61.9 Q 497.5 -58.4 491.4 -58.4 L 491.4 -58.4 L 491.4 -58.4 Q 483.8 -58.4 482.2 -64 L 482.2 -64 L 482.2 -64 Q 481.7 -65.7 481.7 -67.5 L 481.7 -67.5 L 481.7 -67.5 Q 481.7 -69.4 482.1 -71.3 L 482.1 -71.3 L 485.1 -87.3 L 498.1 -88.6 L 494.6 -69.9 L 494.6 -69.9 Q 494.4 -69.1 494.2 -68.2 L 494.2 -68.2 L 494.2 -68.2 Q 494 -67.3 494 -66.4 L 494 -66.4 L 494 -66.4 Q 494 -65.5 494.4 -64.9 L 494.4 -64.9 L 494.4 -64.9 Q 494.7 -64.2 495.1 -63.9 L 495.1 -63.9 L 495.1 -63.9 Q 495.9 -63.3 497.3 -63.3 L 497.3 -63.3 L 497.3 -63.3 Q 498.7 -63.3 499.8 -65 L 499.8 -65 L 499.8 -65 Q 501 -66.7 501.6 -69.6 L 501.6 -69.6 L 505.1 -87.3 L 517.7 -88.6 L 512.9 -63.4 L 512.9 -63.4 Q 510.6 -51.1 505.7 -46.3 L 505.7 -46.3 L 505.7 -46.3 Q 503.2 -43.8 500 -42.8 L 500 -42.8 L 500 -42.8 Q 496.7 -41.8 492.6 -41.8 L 492.6 -41.8 L 492.6 -41.8 Q 485.9 -41.8 482 -43.9 L 482 -43.9 L 482 -43.9 Q 478.2 -46 478.2 -49.5 L 478.2 -49.5 L 478.2 -49.5 Q 478.2 -52.1 480.2 -53.7 L 480.2 -53.7 L 480.2 -53.7 Q 482.1 -55.2 485.2 -55.2 L 485.2 -55.2 L 485.2 -55.2 Q 487.9 -55.2 490 -54 L 490 -54 L 490 -54 Q 491.2 -53.3 491.7 -52.4 L 491.7 -52.4 L 491.7 -52.4 Q 490.3 -51.1 490.3 -49 L 490.3 -49 L 490.3 -49 Q 490.3 -46.2 492.8 -46.2 L 492.8 -46.2 L 492.8 -46.2 Q 497.1 -46.2 499.5 -55.9 L 499.5 -55.9 L 499.5 -55.9 Q 500.2 -58.8 500.8 -61.9 Z M 548.6 -58.2 L 548.6 -58.2 L 548.6 -58.2 Q 546.6 -53.4 540.3 -53.4 L 540.3 -53.4 L 540.3 -53.4 Q 537 -53.4 534.9 -55.6 L 534.9 -55.6 L 534.9 -55.6 Q 533.2 -57.6 533.2 -59.6 L 533.2 -59.6 L 533.2 -59.6 Q 533.2 -64.8 535.6 -74.9 L 535.6 -74.9 L 538 -87.3 L 550.9 -88.6 L 547 -68.3 L 547 -68.3 Q 546 -63.6 546 -61.9 L 546 -61.9 L 546 -61.9 Q 546 -58.3 548.6 -58.2 Z M 539.1 -96.2 L 539.1 -96.2 L 539.1 -96.2 Q 539.1 -98.7 541.2 -100 L 541.2 -100 L 541.2 -100 Q 543.3 -101.4 546.3 -101.4 L 546.3 -101.4 L 546.3 -101.4 Q 549.3 -101.4 551.1 -100 L 551.1 -100 L 551.1 -100 Q 552.9 -98.7 552.9 -96.2 L 552.9 -96.2 L 552.9 -96.2 Q 552.9 -93.7 550.9 -92.4 L 550.9 -92.4 L 550.9 -92.4 Q 548.9 -91.1 545.9 -91.1 L 545.9 -91.1 L 545.9 -91.1 Q 542.9 -91.1 541 -92.4 L 541 -92.4 L 541 -92.4 Q 539.1 -93.7 539.1 -96.2 Z M 600.1 -53.4 L 600.1 -53.4 L 600.1 -53.4 Q 592.4 -53.4 592.4 -59.4 L 592.4 -59.4 L 592.4 -59.4 Q 592.4 -62 593.5 -67.1 L 593.5 -67.1 L 593.5 -67.1 Q 594.6 -72.2 595 -74.2 L 595 -74.2 L 595 -74.2 Q 595.9 -78.9 595.9 -80.4 L 595.9 -80.4 L 595.9 -80.4 Q 595.9 -83.6 593.4 -83.6 L 593.4 -83.6 L 593.4 -83.6 Q 591.8 -83.6 590.3 -81.4 L 590.3 -81.4 L 590.3 -81.4 Q 588.8 -79.2 588.1 -74.8 L 588.1 -74.8 L 584.1 -54.6 L 571.6 -53.4 L 575.1 -70.8 L 575.1 -70.8 Q 575.6 -73.7 576.2 -76.9 L 576.2 -76.9 L 576.2 -76.9 Q 576.7 -80.2 576.7 -80.7 L 576.7 -80.7 L 576.7 -80.7 Q 576.7 -83.6 574.5 -83.6 L 574.5 -83.6 L 574.5 -83.6 Q 573 -83.6 571.4 -81.5 L 571.4 -81.5 L 571.4 -81.5 Q 569.8 -79.3 568.9 -74.8 L 568.9 -74.8 L 565 -54.6 L 552.4 -53.4 L 559.1 -87.3 L 569.6 -88.6 L 568.5 -82.1 L 568.5 -82.1 Q 570.1 -85.6 573.2 -87.1 L 573.2 -87.1 L 573.2 -87.1 Q 576.3 -88.6 581.1 -88.6 L 581.1 -88.6 L 581.1 -88.6 Q 583.8 -88.6 585.6 -87.2 L 585.6 -87.2 L 585.6 -87.2 Q 587.4 -85.9 588 -83.7 L 588 -83.7 L 588 -83.7 Q 589.1 -85.9 591.9 -87.3 L 591.9 -87.3 L 591.9 -87.3 Q 594.7 -88.6 598.1 -88.6 L 598.1 -88.6 L 598.1 -88.6 Q 601.5 -88.6 603.2 -87.8 L 603.2 -87.8 L 603.2 -87.8 Q 604.9 -87.1 605.9 -85.9 L 605.9 -85.9 L 605.9 -85.9 Q 607.6 -83.6 607.6 -79.5 L 607.6 -79.5 L 607.6 -79.5 Q 607.6 -75.5 605.9 -67.1 L 605.9 -67.1 L 605.9 -67.1 Q 605 -63 605 -61.5 L 605 -61.5 L 605 -61.5 Q 605 -60 605.9 -59.1 L 605.9 -59.1 L 605.9 -59.1 Q 606.8 -58.2 608 -58.1 L 608 -58.1 L 608 -58.1 Q 607.4 -55.9 605.2 -54.6 L 605.2 -54.6 L 605.2 -54.6 Q 603 -53.4 600.1 -53.4 Z M 615.7 -56.6 L 615.7 -56.6 L 615.7 -56.6 Q 614.2 -58.2 613.6 -60.9 L 613.6 -60.9 L 613.6 -60.9 Q 612.9 -63.5 612.9 -67.8 L 612.9 -67.8 L 612.9 -67.8 Q 612.9 -72.1 614.4 -76 L 614.4 -76 L 614.4 -76 Q 615.8 -79.9 618.5 -82.7 L 618.5 -82.7 L 618.5 -82.7 Q 624 -88.6 633.1 -88.6 L 633.1 -88.6 L 633.1 -88.6 Q 636.4 -88.6 638.8 -87.5 L 638.8 -87.5 L 649.7 -88.6 L 645 -63.6 L 645 -63.6 Q 644.8 -62.8 644.8 -61.4 L 644.8 -61.4 L 644.8 -61.4 Q 644.8 -60 645.6 -59.1 L 645.6 -59.1 L 645.6 -59.1 Q 646.5 -58.2 647.8 -58.1 L 647.8 -58.1 L 647.8 -58.1 Q 647.1 -55.9 644.8 -54.6 L 644.8 -54.6 L 644.8 -54.6 Q 642.5 -53.4 639.8 -53.4 L 639.8 -53.4 L 639.8 -53.4 Q 637.2 -53.4 635.5 -54.4 L 635.5 -54.4 L 635.5 -54.4 Q 633.7 -55.3 633.2 -57 L 633.2 -57 L 633.2 -57 Q 632.2 -55.4 630 -54.4 L 630 -54.4 L 630 -54.4 Q 627.8 -53.4 624.9 -53.4 L 624.9 -53.4 L 624.9 -53.4 Q 622 -53.4 619.6 -54.1 L 619.6 -54.1 L 619.6 -54.1 Q 617.2 -54.9 615.7 -56.6 Z M 629.2 -82.5 L 629.2 -82.5 L 629.2 -82.5 Q 628.5 -81.4 627.9 -79.4 L 627.9 -79.4 L 627.9 -79.4 Q 627.2 -77.5 626.2 -72.3 L 626.2 -72.3 L 626.2 -72.3 Q 625.1 -67.1 625.1 -63.3 L 625.1 -63.3 L 625.1 -63.3 Q 625.1 -59.6 625.7 -58.5 L 625.7 -58.5 L 625.7 -58.5 Q 626.3 -57.5 627.3 -57.5 L 627.3 -57.5 L 627.3 -57.5 Q 629.3 -57.5 630.8 -59.4 L 630.8 -59.4 L 630.8 -59.4 Q 632.4 -61.4 632.9 -64.8 L 632.9 -64.8 L 636.3 -83.6 L 636.3 -83.6 Q 635 -84.7 633.4 -84.7 L 633.4 -84.7 L 633.4 -84.7 Q 631.8 -84.7 630.9 -84.2 L 630.9 -84.2 L 630.9 -84.2 Q 630 -83.7 629.2 -82.5 Z M 657.4 -81.4 L 657.4 -81.4 L 657.4 -81.4 Q 659.6 -84.5 662.9 -86.5 L 662.9 -86.5 L 662.9 -86.5 Q 666.2 -88.6 670.2 -88.6 L 670.2 -88.6 L 670.2 -88.6 Q 674.3 -88.6 676.2 -87.3 L 676.2 -87.3 L 688.7 -88.6 L 684.4 -64 L 684.4 -64 Q 682.1 -51.4 677.4 -46.5 L 677.4 -46.5 L 677.4 -46.5 Q 672.9 -41.8 664 -41.8 L 664 -41.8 L 664 -41.8 Q 657.3 -41.8 653.5 -44 L 653.5 -44 L 653.5 -44 Q 649.6 -46.1 649.6 -49.6 L 649.6 -49.6 L 649.6 -49.6 Q 649.6 -52.2 651.6 -53.7 L 651.6 -53.7 L 651.6 -53.7 Q 653.6 -55.2 656.7 -55.2 L 656.7 -55.2 L 656.7 -55.2 Q 659.4 -55.2 661.4 -54 L 661.4 -54 L 661.4 -54 Q 662.6 -53.4 663.2 -52.5 L 663.2 -52.5 L 663.2 -52.5 Q 661.7 -51.2 661.7 -49.1 L 661.7 -49.1 L 661.7 -49.1 Q 661.7 -46.3 664.3 -46.3 L 664.3 -46.3 L 664.3 -46.3 Q 668.6 -46.3 671 -56.4 L 671 -56.4 L 671 -56.4 Q 671.7 -59.2 672.3 -61.9 L 672.3 -61.9 L 672.3 -61.9 Q 669.4 -58.4 662.9 -58.4 L 662.9 -58.4 L 662.9 -58.4 Q 658.3 -58.4 655.7 -60.6 L 655.7 -60.6 L 655.7 -60.6 Q 653.1 -62.8 653.1 -67.9 L 653.1 -67.9 L 653.1 -67.9 Q 653.1 -71.1 654.2 -74.7 L 654.2 -74.7 L 654.2 -74.7 Q 655.3 -78.3 657.4 -81.4 Z M 665.8 -67.7 L 665.8 -67.7 L 665.8 -67.7 Q 665.8 -63.3 668 -63.3 L 668 -63.3 L 668 -63.3 Q 669.5 -63.3 671 -65 L 671 -65 L 671 -65 Q 672.2 -66.4 672.6 -68.3 L 672.6 -68.3 L 675.9 -84.8 L 675.9 -84.8 Q 675.6 -84.9 675.2 -85 L 675.2 -85 L 675.2 -85 Q 674.6 -85.2 673.8 -85.2 L 673.8 -85.2 L 673.8 -85.2 Q 669.9 -85.2 667.6 -78.8 L 667.6 -78.8 L 667.6 -78.8 Q 665.8 -73.8 665.8 -67.7 Z M 717.2 -65.5 L 717.2 -65.5 L 717.2 -65.5 Q 718.8 -64.4 718.8 -62 L 718.8 -62 L 718.8 -62 Q 718.8 -59.6 717.5 -58 L 717.5 -58 L 717.5 -58 Q 716.3 -56.5 714.3 -55.5 L 714.3 -55.5 L 714.3 -55.5 Q 710.2 -53.4 705.8 -53.4 L 705.8 -53.4 L 705.8 -53.4 Q 701.4 -53.4 698.8 -54.3 L 698.8 -54.3 L 698.8 -54.3 Q 696.2 -55.3 694.5 -57.1 L 694.5 -57.1 L 694.5 -57.1 Q 691.1 -60.5 691.1 -66.7 L 691.1 -66.7 L 691.1 -66.7 Q 691.1 -76.3 696.4 -82.2 L 696.4 -82.2 L 696.4 -82.2 Q 702 -88.6 711.8 -88.6 L 711.8 -88.6 L 711.8 -88.6 Q 717.9 -88.6 720.9 -86 L 720.9 -86 L 720.9 -86 Q 723.1 -84.1 723.1 -80.9 L 723.1 -80.9 L 723.1 -80.9 Q 723.1 -69.7 703.6 -69.7 L 703.6 -69.7 L 703.6 -69.7 Q 703.4 -68 703.4 -66.6 L 703.4 -66.6 L 703.4 -66.6 Q 703.4 -63.7 704.7 -62.5 L 704.7 -62.5 L 704.7 -62.5 Q 706 -61.4 708.4 -61.4 L 708.4 -61.4 L 708.4 -61.4 Q 710.9 -61.4 713.5 -62.5 L 713.5 -62.5 L 713.5 -62.5 Q 716.1 -63.7 717.2 -65.5 Z M 704.1 -72.4 L 704.1 -72.4 L 704.1 -72.4 Q 708.6 -72.4 711.3 -75.3 L 711.3 -75.3 L 711.3 -75.3 Q 713.9 -77.9 713.9 -82.2 L 713.9 -82.2 L 713.9 -82.2 Q 713.9 -83.7 713.3 -84.5 L 713.3 -84.5 L 713.3 -84.5 Q 712.8 -85.3 711.7 -85.3 L 711.7 -85.3 L 711.7 -85.3 Q 710.6 -85.3 709.7 -84.9 L 709.7 -84.9 L 709.7 -84.9 Q 708.8 -84.5 707.8 -83.1 L 707.8 -83.1 L 707.8 -83.1 Q 705.4 -79.9 704.1 -72.4 Z M 744.4 -77.1 L 744.4 -77.1 L 744.4 -77.1 Q 745.3 -79.5 745.3 -81.5 L 745.3 -81.5 L 745.3 -81.5 Q 745.3 -85.3 742.2 -85.3 L 742.2 -85.3 L 742.2 -85.3 Q 740.6 -85.3 739.3 -83.9 L 739.3 -83.9 L 739.3 -83.9 Q 738 -82.4 738 -80.6 L 738 -80.6 L 738 -80.6 Q 738 -79.3 739 -78.3 L 739 -78.3 L 739 -78.3 Q 740.5 -76.9 744.3 -74.6 L 744.3 -74.6 L 744.3 -74.6 Q 748.1 -72.3 749.5 -70.4 L 749.5 -70.4 L 749.5 -70.4 Q 750.9 -68.5 750.9 -65.9 L 750.9 -65.9 L 750.9 -65.9 Q 750.9 -63.3 749.7 -61 L 749.7 -61 L 749.7 -61 Q 748.4 -58.6 746.2 -56.9 L 746.2 -56.9 L 746.2 -56.9 Q 741.4 -53.4 733.7 -53.4 L 733.7 -53.4 L 733.7 -53.4 Q 729.6 -53.4 726.4 -55.5 L 726.4 -55.5 L 726.4 -55.5 Q 723.2 -57.7 723.2 -60.1 L 723.2 -60.1 L 723.2 -60.1 Q 723.2 -62.6 725 -64.1 L 725 -64.1 L 725 -64.1 Q 726.8 -65.6 729.5 -65.6 L 729.5 -65.6 L 729.5 -65.6 Q 732.2 -65.6 733.9 -64.6 L 733.9 -64.6 L 733.9 -64.6 Q 733 -62.5 733 -61 L 733 -61 L 733 -61 Q 733 -56.8 736.6 -56.8 L 736.6 -56.8 L 736.6 -56.8 Q 738.1 -56.8 739.2 -57.8 L 739.2 -57.8 L 739.2 -57.8 Q 740.2 -58.7 740.2 -60.4 L 740.2 -60.4 L 740.2 -60.4 Q 740.2 -63.7 734.7 -67.1 L 734.7 -67.1 L 734.7 -67.1 Q 730.2 -70.1 729.2 -71.2 L 729.2 -71.2 L 729.2 -71.2 Q 727.5 -73.3 727.5 -75.8 L 727.5 -75.8 L 727.5 -75.8 Q 727.5 -78.4 728.7 -80.8 L 728.7 -80.8 L 728.7 -80.8 Q 729.9 -83.3 732.1 -85 L 732.1 -85 L 732.1 -85 Q 736.8 -88.6 744.9 -88.6 L 744.9 -88.6 L 744.9 -88.6 Q 749.1 -88.6 751.6 -86.9 L 751.6 -86.9 L 751.6 -86.9 Q 754 -85.2 754 -82.4 L 754 -82.4 L 754 -82.4 Q 754 -79.6 752.3 -78 L 752.3 -78 L 752.3 -78 Q 750.6 -76.4 747.6 -76.4 L 747.6 -76.4 L 747.6 -76.4 Q 745.4 -76.4 744.4 -77.1 Z" fill="url(#editing-gradient-gradient)"></path></g></g><style>text {
  font-size: 64px;
  font-family: Arial Black;
  dominant-baseline: central;
  text-anchor: middle;
}</style></svg>